<svg id="wave" style="transform:rotate(180deg); transition: 0.3s" viewBox="0 0 1440 490" version="1.1" xmlns="http://www.w3.org/2000/svg"><defs><linearGradient id="sw-gradient-0" x1="0" x2="0" y1="1" y2="0"><stop stop-color="rgba(243, 106, 62, 1)" offset="0%"></stop><stop stop-color="rgba(255, 179, 11, 1)" offset="100%"></stop></linearGradient></defs><path style="transform:translate(0, 0px); opacity:1" fill="url(#sw-gradient-0)" d="M0,98L60,98C120,98,240,98,360,122.5C480,147,600,196,720,187.8C840,180,960,114,1080,73.5C1200,33,1320,16,1440,65.3C1560,114,1680,229,1800,294C1920,359,2040,376,2160,343C2280,310,2400,229,2520,171.5C2640,114,2760,82,2880,81.7C3000,82,3120,114,3240,147C3360,180,3480,212,3600,236.8C3720,261,3840,278,3960,302.2C4080,327,4200,359,4320,326.7C4440,294,4560,196,4680,204.2C4800,212,4920,327,5040,383.8C5160,441,5280,441,5400,367.5C5520,294,5640,147,5760,130.7C5880,114,6000,229,6120,253.2C6240,278,6360,212,6480,155.2C6600,98,6720,49,6840,57.2C6960,65,7080,131,7200,196C7320,261,7440,327,7560,351.2C7680,376,7800,359,7920,334.8C8040,310,8160,278,8280,269.5C8400,261,8520,278,8580,285.8L8640,294L8640,490L8580,490C8520,490,8400,490,8280,490C8160,490,8040,490,7920,490C7800,490,7680,490,7560,490C7440,490,7320,490,7200,490C7080,490,6960,490,6840,490C6720,490,6600,490,6480,490C6360,490,6240,490,6120,490C6000,490,5880,490,5760,490C5640,490,5520,490,5400,490C5280,490,5160,490,5040,490C4920,490,4800,490,4680,490C4560,490,4440,490,4320,490C4200,490,4080,490,3960,490C3840,490,3720,490,3600,490C3480,490,3360,490,3240,490C3120,490,3000,490,2880,490C2760,490,2640,490,2520,490C2400,490,2280,490,2160,490C2040,490,1920,490,1800,490C1680,490,1560,490,1440,490C1320,490,1200,490,1080,490C960,490,840,490,720,490C600,490,480,490,360,490C240,490,120,490,60,490L0,490Z"></path></svg>